<svg fill="none" height="512" viewBox="0 0 512 512" width="512" xmlns="http://www.w3.org/2000/svg"><g fill="rgb(0,0,0)"><path d="m255.575 476.292c-28.978.054-57.68-5.62-84.458-16.694s-51.103-27.331-71.5785-47.836c-86.0513-86.051-86.0513-226.057 0-312.108 20.4445-20.5595 44.7645-36.8599 71.5515-47.9576 26.786-11.0978 55.508-16.7725 84.503-16.6956 58.95 0 114.37 22.9517 156.036 64.6532 41.684 41.684 64.653 97.103 64.653 156.054s-22.952 114.37-64.653 156.054c-20.479 20.505-44.808 36.762-71.588 47.836-26.781 11.074-55.486 16.747-84.466 16.694zm.018-405.9809c-24.357-.0691-48.485 4.6953-70.987 14.0174s-42.931 23.0165-60.103 40.2895c-35.0103 35.011-54.2898 81.567-54.2898 131.09s19.2795 96.062 54.2898 131.09c72.28 72.28 189.899 72.298 262.162 0 35.01-35.01 54.307-81.567 54.307-131.09s-19.28-96.062-54.307-131.09c-17.173-17.268-37.599-30.9588-60.097-40.2806-22.499-9.3218-46.622-14.0892-70.975-14.0263z"/><path d="m180.677 348.25c-3.495.008-6.914-1.023-9.822-2.961-2.908-1.939-5.175-4.698-6.512-7.927-1.338-3.229-1.685-6.783-1-10.21.686-3.427 2.375-6.573 4.852-9.039l149.804-149.804c1.639-1.639 3.585-2.939 5.727-3.827 2.141-.887 4.437-1.343 6.755-1.343s4.614.456 6.755 1.343c2.142.888 4.088 2.188 5.727 3.827s2.94 3.585 3.827 5.727 1.344 4.437 1.344 6.755-.457 4.614-1.344 6.756c-.887 2.141-2.188 4.087-3.827 5.726l-149.804 149.805c-1.635 1.645-3.58 2.949-5.723 3.837-2.142.888-4.44 1.342-6.759 1.335z"/><path d="m330.491 348.25c-2.319.003-4.615-.453-6.757-1.341-2.143-.887-4.088-2.19-5.725-3.831l-149.805-149.805c-1.639-1.639-2.939-3.585-3.826-5.726-.887-2.142-1.344-4.438-1.344-6.756s.457-4.613 1.344-6.755 2.187-4.088 3.826-5.727c1.64-1.639 3.586-2.939 5.727-3.827 2.142-.887 4.438-1.343 6.756-1.343s4.613.456 6.755 1.343c2.142.888 4.088 2.188 5.727 3.827l149.804 149.804c2.477 2.466 4.166 5.612 4.851 9.039.686 3.427.338 6.981-.999 10.21-1.338 3.229-3.604 5.988-6.512 7.927-2.909 1.938-6.327 2.969-9.822 2.961z"/></g></svg>