<svg xmlns="http://www.w3.org/2000/svg" version="1.1" xmlns:xlink="http://www.w3.org/1999/xlink" xmlns:svgjs="http://svgjs.com/svgjs" width="512" height="512" x="0" y="0" viewBox="0 0 511.999 511.999" style="enable-background:new 0 0 512 512" xml:space="preserve" class=""><g><path d="M364.001 194.004c-23.156 0-41.996 18.84-41.996 41.997 0 30.736 32.065 51.004 59.736 38.053l-7.378-7.378c-5.858-5.857-5.858-15.355 0-21.213 5.857-5.857 15.355-5.857 21.213 0l7.039 7.039c11.842-27.597-8.532-58.498-38.614-58.498z" fill="#9a8276" data-original="#000000" class="" opacity="1"></path><path d="M466.999 70.499H45c-24.813 0-45 20.187-45 45v241.006c0 24.814 20.187 45 45 45h173.5l25.5 33.999c6.002 8.003 18.011 7.986 24 0l25.5-33.999h173.499c24.814 0 45-20.186 45-45V115.499c0-24.813-20.187-45-45-45zM132.787 220.347c8.284 0 15 6.716 15 15s-6.716 15-15 15h-27.221v42.65c0 8.284-6.717 15-15 15-8.284 0-15-6.716-15-15V179.839c0-8.284 6.716-15 15-15h45.863c8.284 0 15 6.716 15 15s-6.716 15-15 15h-30.863v25.508zm135.012 86.684c-7.753 2.927-16.405-.989-19.33-8.738l-6.902-18.287h-48.064l-6.982 18.331c-2.954 7.754-11.631 11.622-19.356 8.678-7.741-2.948-11.627-11.614-8.679-19.357L201.29 175.27c2.445-6.507 8.836-11.259 16.393-11.267a17.518 17.518 0 0 1 16.278 10.895c.145.353-1.756-4.673 42.577 112.803 2.924 7.75-.989 16.406-8.739 19.33zm164.245-3.887c-5.858 5.858-15.355 5.858-21.213 0l-7.124-7.125c-11.391 7.56-25.04 11.978-39.706 11.978-39.7 0-71.996-32.297-71.996-71.996s32.296-71.997 71.996-71.997c39.698 0 71.997 32.298 71.997 71.997 0 14.2-4.149 27.442-11.275 38.608l7.321 7.321c5.858 5.858 5.858 15.356 0 21.214z" fill="#9a8276" data-original="#000000" class="" opacity="1"></path><path d="M204.928 250.006h25.318l-12.601-33.392z" fill="#9a8276" data-original="#000000" class="" opacity="1"></path></g></svg>