<svg xmlns="http://www.w3.org/2000/svg" version="1.1" xmlns:xlink="http://www.w3.org/1999/xlink" xmlns:svgjs="http://svgjs.com/svgjs" width="512" height="512" x="0" y="0" viewBox="0 0 384 384" style="enable-background:new 0 0 512 512" xml:space="preserve" class=""><g><path fill="#f6eae0" d="M240.078 304h-192c0 8.8-3.598 16.8-9.36 22.64-5.84 5.758-13.84 9.36-22.64 9.36v32h256v-32c-17.68 0-32-14.32-32-32zM240.078 48h-96c0-8.8-3.598-16.8-9.36-22.64-5.84-5.758-13.84-9.36-22.64-9.36h-32v32c-17.68 0-32 14.32-32 32v160h192v-48l-64-64 64-24zm0 0" data-original="#cce4ff" class="" opacity="1"></path><path fill="#7a4e3c" d="M64.137 288H32v16c0 8.824-7.176 16-16 16H0v64h288v-64h-16c-8.824 0-16-7.176-16-16v-16h-32l-4.281-32H256v-70.633l-51.121-51.11L256 115.09V32h-98.742C150.656 13.375 132.855 0 112 0H64v34.742C45.375 41.344 32 59.145 32 80v176h36.223l-4.078 29.832zm162.597 32c4.832 13.617 15.641 24.434 29.258 29.258V352h-224v-2.742c13.617-4.832 24.434-15.64 29.254-29.258zM64 80c0-8.824 7.176-16 16-16h16V32h16c8.824 0 16 7.176 16 16v16h96v28.91l-43.977 16.488-24.71-24.71-22.625 22.624 14.433 14.43L224 198.632V224H64zm123.473 176 4.375 32H96.145l4.375-32zm0 0" data-original="#007aff" class="" opacity="1"></path></g></svg>